# xmcd
#
# Track frame offsets:
#	150
#	13976
#	30151
#	55206
#	68496
#	82064
#	97212
#	118708
#	134829
#	149675
#	168123
#
# Disc length: 2485 seconds
#
# Revision: 1
# Processed by: cddbd v1.5.1PL2 Copyright (c) Steve Scherf et al.
# Submitted via: audiograbber 1.83.01
#
DISCID=9d09b30b
DTITLE=The Bangers - Small Tales
DYEAR=2003
DGENRE=Country
TTITLE0=Damned Train
TTITLE1=My Heart Is The Bums On The Street
TTITLE2=Incredibly Blue
TTITLE3=(I Wish I Would Have) Sobered Up
TTITLE4=50-Years-Old Boy
TTITLE5=Big Ol´ Love
TTITLE6=Mr. Fool
TTITLE7=Tico Tico
TTITLE8=Working Men
TTITLE9=Another Day
TTITLE10=House Full Of Love
EXTD=
EXTT0=
EXTT1=
EXTT2=
EXTT3=
EXTT4=
EXTT5=
EXTT6=
EXTT7=
EXTT8=
EXTT9=
EXTT10=
PLAYORDER=
